<?xml version="1.0" encoding="UTF-8"?>
<svg id="Capa_2" data-name="Capa 2" xmlns="http://www.w3.org/2000/svg" viewBox="0 0 110.79 125.01">
  <defs>
    <style>
      .cls-1 {
        fill: #fff;
      }

      .cls-2 {
        fill: #2ba250;
      }

      .cls-3 {
        fill: #b05beb;
      }

      .cls-4 {
        fill: #fdc63a;
      }

      .cls-5 {
        fill: #e51f4a;
      }

      .cls-6 {
        fill: #ed8149;
      }
    </style>
  </defs>
  <g id="Capa_1-2" data-name="Capa 1">
    <g>
      <g>
        <path class="cls-5" d="m9.17,5.57C4.11,5.57,0,9.67,0,14.73v101.11c0,5.06,4.11,9.17,9.17,9.17h46.22V5.57H9.17Z"/>
        <path class="cls-5" d="m101.63,5.57h-46.23v119.44h46.23c5.06,0,9.17-4.11,9.17-9.17V14.73c0-5.06-4.1-9.17-9.17-9.17Z"/>
      </g>
      <g>
        <rect class="cls-4" x="9.17" y="14.73" width="46.22" height="101.11"/>
        <rect class="cls-4" x="55.39" y="14.73" width="46.23" height="101.11"/>
      </g>
      <g>
        <path class="cls-2" d="m9.17,5.57C4.11,5.57,0,9.67,0,14.73v16.83h55.39V5.57H9.17Z"/>
        <path class="cls-2" d="m110.79,14.73c0-5.06-4.1-9.17-9.17-9.17h-46.23v26h55.4V14.73Z"/>
      </g>
      <rect class="cls-3" x="24.61" y="5.57" width="6.72" height="9.61"/>
      <rect class="cls-3" x="80.37" y="5.57" width="6.73" height="9.61"/>
      <rect class="cls-6" x="25.69" width="4.56" height="18.57"/>
      <rect class="cls-6" x="81.46" width="4.56" height="18.57"/>
      <g>
        <path class="cls-1" d="m40.01,54.58c1.99,0,3.77.29,5.36.87,1.59.58,2.95,1.38,4.07,2.41,1.12,1.03,1.98,2.25,2.58,3.68.6,1.42.9,2.99.9,4.7,0,1.47-.21,2.83-.62,4.08-.41,1.25-.98,2.44-1.7,3.57-.72,1.13-1.55,2.22-2.5,3.28-.95,1.06-1.95,2.13-3.02,3.21l-7.86,8.05c1.01-.29,2.01-.53,2.99-.71.98-.17,1.91-.26,2.77-.26h7.5c.92,0,1.64.25,2.18.76.53.5.8,1.17.8,2v4.96h-28.23v-2.76c0-.53.11-1.1.33-1.71.22-.61.6-1.16,1.16-1.66l11.58-11.66c.99-.99,1.86-1.94,2.59-2.84.73-.9,1.34-1.79,1.82-2.66.48-.87.84-1.75,1.08-2.62.24-.87.36-1.8.36-2.77,0-1.6-.38-2.83-1.14-3.68-.76-.86-1.93-1.28-3.49-1.28-.64,0-1.23.09-1.77.28-.53.18-1.01.43-1.43.74-.42.31-.79.68-1.09,1.1-.3.42-.55.88-.73,1.38-.3.83-.67,1.42-1.12,1.79-.45.37-1.06.55-1.83.55-.18,0-.38-.01-.59-.03-.21-.02-.43-.05-.65-.08l-4.52-.8c.3-2,.86-3.75,1.7-5.24.83-1.49,1.87-2.73,3.11-3.72,1.24-.99,2.66-1.73,4.26-2.22,1.6-.49,3.32-.73,5.15-.73Z"/>
        <path class="cls-1" d="m86.28,75.1c0,3.51-.38,6.55-1.13,9.13-.75,2.57-1.8,4.71-3.13,6.4-1.33,1.69-2.92,2.95-4.74,3.78-1.83.83-3.81,1.24-5.94,1.24s-4.1-.41-5.91-1.24c-1.81-.83-3.38-2.08-4.7-3.78-1.32-1.69-2.36-3.82-3.1-6.4-.74-2.57-1.12-5.61-1.12-9.13s.37-6.55,1.12-9.13c.74-2.57,1.78-4.71,3.1-6.4,1.32-1.69,2.89-2.95,4.7-3.76,1.81-.82,3.78-1.23,5.91-1.23s4.11.41,5.94,1.23c1.83.82,3.41,2.07,4.74,3.76,1.33,1.69,2.38,3.82,3.13,6.4.75,2.57,1.13,5.62,1.13,9.13Zm-8.82,0c0-2.78-.18-5.05-.53-6.82-.35-1.77-.81-3.17-1.39-4.18-.58-1.01-1.24-1.7-1.97-2.08-.74-.38-1.48-.57-2.23-.57s-1.49.19-2.22.57c-.73.38-1.37,1.07-1.93,2.08-.56,1.01-1.01,2.4-1.35,4.18-.34,1.77-.51,4.05-.51,6.82s.17,5.07.51,6.84c.34,1.77.79,3.16,1.35,4.18.56,1.02,1.2,1.72,1.93,2.1.72.38,1.46.56,2.22.56s1.5-.19,2.23-.56c.74-.38,1.39-1.07,1.97-2.1.58-1.02,1.04-2.41,1.39-4.18.35-1.77.53-4.04.53-6.84Z"/>
      </g>
    </g>
  </g>
</svg>