<?xml version="1.0" encoding="UTF-8"?>
<svg id="Capa_2" data-name="Capa 2" xmlns="http://www.w3.org/2000/svg" viewBox="0 0 109.74 109.69">
  <defs>
    <style>
      .cls-1 {
        fill: #ecb644;
      }
    </style>
  </defs>
  <g id="Capa_1-2" data-name="Capa 1">
    <g>
      <path class="cls-1" d="m70.36,96.58c8.07,0,14.63-5.55,14.63-12.37,0-.48.39-.86.86-.86s.86.38.86.86c0,4.07,2.35,7.67,5.94,9.93v-36.53l9.13,9.13,5.18-5.18c3.69-3.69,3.69-9.68,0-13.37L66.73,7.96v-.02s-5.16-5.18-5.16-5.18C59.72.92,57.29,0,54.87,0c-2.42,0-4.85.92-6.7,2.76l-5.18,5.18v.02S2.77,48.2,2.77,48.2c-3.69,3.69-3.69,9.68,0,13.37l5.18,5.18,9.13-9.13v36.53c3.6-2.26,5.94-5.86,5.94-9.93,0-.48.39-.86.86-.86s.86.38.86.86c0,6.82,6.56,12.37,14.63,12.37.37,0,.73-.02,1.09-.05v-32.15h28.82v32.15c.36.02.72.05,1.08.05Z"/>
      <rect class="cls-1" x="15.04" y="39.09" width="25.8" height="70.6" rx="9.84" ry="9.84"/>
      <rect class="cls-1" x="68.73" y="39.09" width="25.96" height="70.6" rx="9.84" ry="9.84"/>
    </g>
  </g>
</svg>