<?xml version="1.0" encoding="UTF-8"?>
<svg id="Capa_2" data-name="Capa 2" xmlns="http://www.w3.org/2000/svg" viewBox="0 0 134.75 119.72">
  <defs>
    <style>
      .cls-1 {
        fill: #9a7c76;
      }

      .cls-2 {
        fill: #fff;
      }

      .cls-2, .cls-3 {
        fill-rule: evenodd;
      }

      .cls-3, .cls-4 {
        fill: #f1b964;
      }

      .cls-5 {
        fill: #fdda8f;
      }
    </style>
  </defs>
  <g id="Capa_1-2" data-name="Capa 1">
    <g>
      <g>
        <rect class="cls-1" x="21.88" y="90.02" width="90.98" height="29.69"/>
        <rect class="cls-5" x="36.62" y="97.35" width="61.5" height="15.03"/>
        <path class="cls-3" d="m98.13,90.02c0-4.23-2.77-7.69-6.15-7.69h-49.2c-3.38,0-6.15,3.46-6.15,7.69h61.5Z"/>
        <rect class="cls-4" x="61.61" y="34.45" width="11.53" height="47.89"/>
        <path class="cls-3" d="m114.83,0c0,26.21-21.24,47.45-47.45,47.45S19.92,26.21,19.92,0h94.9Z"/>
        <g>
          <path class="cls-4" d="m28.12,8.1H5.56c.76,5.03,3.65,9.33,7.83,12.57,5.43,4.21,13.01,6.65,21.03,6.65v5.36c-9.18,0-17.93-2.85-24.29-7.78C3.94,20.11,0,13.39,0,5.42v-2.68h28.12v5.36Z"/>
          <path class="cls-4" d="m106.63,8.1h22.56c-.76,5.03-3.65,9.33-7.83,12.57-5.43,4.21-13.01,6.65-21.03,6.65v5.36c9.18,0,17.93-2.85,24.29-7.78,6.19-4.79,10.13-11.5,10.13-19.48v-2.68h-28.12v5.36Z"/>
        </g>
      </g>
      <polygon class="cls-2" points="67.37 7.47 70.83 18.18 82.08 18.16 72.97 24.76 76.47 35.45 67.37 28.82 58.28 35.45 61.78 24.76 52.66 18.16 63.92 18.18 67.37 7.47"/>
    </g>
  </g>
</svg>