<?xml version="1.0" encoding="UTF-8"?>
<svg id="Capa_2" data-name="Capa 2" xmlns="http://www.w3.org/2000/svg" viewBox="0 0 115.87 145.2">
  <defs>
    <style>
      .cls-1 {
        fill: #2ba250;
      }

      .cls-2 {
        fill: #c12106;
      }

      .cls-3 {
        fill: #2aafd5;
      }
    </style>
  </defs>
  <g id="Capa_1-2" data-name="Capa 1">
    <g>
      <g>
        <path class="cls-1" d="m35.92,131.57c.06.45.14.98.17,1.03,0,.13.12.47.2.69.17.49.42.96.74,1.38.63.85,1.53,1.62,2.62,2.1,2.19,1.01,4.95.97,6.98-.18.51-.29,1-.62,1.43-1.03.24-.24.37-.35.68-.72.38-.43.36-.45.53-.67.63-.92,1.02-2.11,1.19-3.49.33-2.77-.23-6.07-1.18-9.28-.48-1.62-1.04-3.25-1.65-4.9l-.94-2.59-.89-2.55-3.58-10.19c-2.53-6.69-5.02-13.37-7.66-20.09l-7.9-20.14c-2.54-6.42-5.96-12.98-8.34-20.03-1.22-3.52-2.19-7.2-2.7-11.02-.46-3.82-.49-7.85.57-11.77.98-3.93,3.06-7.59,5.74-10.55,2.68-2.99,5.94-5.26,9.31-7.07l.33-.18.34-.07c2.08-.46,3.99-.21,5.65.28,1.67.49,3.18,1.22,4.58,2.09,2.78,1.74,5.11,4.03,6.97,6.75,1.83,2.72,3.13,6.01,3.25,9.54.15,3.51-.91,7.08-2.73,9.91l-.34.54-.08.13-.04.07-.14.19-.16.22-.63.85-1.27,1.71-2.55,3.41c-1.82,2.25-3.6,4.6-5.47,6.76-3.69,4.43-7.48,8.66-11.19,12.91-3.71,4.22-7.33,8.46-10.78,12.83-3.6,4.11-6.03,8.39-7.45,13.23-1.39,4.79-1.62,9.95-.49,14.67,1.13,4.71,3.7,8.93,7.49,11.5,3.73,2.64,8.66,3.59,13.66,3.25,5.03-.35,10.16-1.87,14.9-4.1,4.74-2.24,9.23-5.19,12.83-8.83,3.56-3.61,6.29-8.09,6.3-12.43.1-4.33-2.73-8.31-7.01-11.38-1.88-1.37-4.21-2.57-6.51-3.28-2.34-.7-4.8-.97-7.24-.76-4.88.43-9.58,2.9-12.78,6.73-3.2,3.84-4.85,8.92-4.67,14.11.05,1.25-.93,2.29-2.18,2.34-1.2.04-2.22-.88-2.33-2.06-.54-6.12,1.1-12.66,5.04-17.69,3.89-5.04,9.83-8.5,16.24-9.32,3.2-.41,6.48-.18,9.6.63,3.15.85,5.97,2.21,8.72,4.1.73.48,1.17.88,1.77,1.32.74.6,1.26,1.04,1.86,1.63,1.17,1.12,2.26,2.36,3.22,3.76,1.92,2.77,3.14,6.29,3.18,9.82.08,3.54-.93,6.9-2.4,9.81-1.47,2.93-3.4,5.47-5.52,7.75-4.28,4.52-9.33,8.03-14.79,10.72-5.47,2.63-11.38,4.51-17.67,5.02-1.57.12-3.17.15-4.78.06-1.72-.1-3.18-.3-4.82-.65-3.22-.66-6.39-1.97-9.19-3.87-5.69-3.78-9.39-9.92-10.94-16.18-1.58-6.3-1.3-12.85.39-18.95.86-3.05,2.06-6.01,3.63-8.76.36-.69.85-1.41,1.29-2.11.46-.74.84-1.2,1.26-1.82l.15-.22.28-.37.34-.42.68-.84,1.36-1.68c3.57-4.54,7.49-8.77,11.34-13,3.9-4.16,7.87-8.19,11.61-12.34,1.92-2.05,3.65-4.16,5.5-6.24l2.68-3.29,1.34-1.65.67-.82.17-.21s-.15.21-.06.08l.03-.04.06-.09.24-.36c1.32-1.89,1.99-3.99,2.01-6.14.02-2.16-.71-4.4-1.96-6.42-1.24-2.03-3.02-3.81-5.02-5.13-1.94-1.32-4.39-2.13-5.84-1.81l.67-.25c-2.98,1.55-5.72,3.47-7.87,5.83-2.18,2.34-3.75,5.13-4.49,8.21-.82,3.06-.79,6.38-.38,9.68.47,3.31,1.35,6.63,2.51,9.91,1.14,3.28,2.53,6.52,3.99,9.77,1.45,3.25,3.03,6.53,4.41,10.02,2.67,6.67,5.29,13.35,8.04,20.02,2.77,6.63,5.44,13.39,8.15,20.12l3.79,10.12.94,2.53.95,2.47c.67,1.71,1.33,3.48,1.9,5.3,1.1,3.65,2.11,7.54,1.77,11.98-.19,2.2-.79,4.57-2.11,6.69-.32.53-.86,1.25-1.07,1.49-.26.33-.74.87-1.14,1.27-.84.86-1.82,1.6-2.85,2.23-4.21,2.52-9.41,2.74-13.83.93-2.23-.9-4.3-2.36-5.91-4.32-.81-.98-1.48-2.09-1.98-3.26-.26-.62-.46-1.13-.65-1.87-.22-.82-.26-1.17-.35-1.62-.45-2.26,1.02-4.46,3.29-4.91,2.27-.45,4.47,1.02,4.92,3.29.02.08.03.18.04.26Z"/>
        <path class="cls-1" d="m41.25,131.09c.88,3.76-1.45,7.52-5.21,8.4-3.76.88-7.52-1.45-8.4-5.21-.88-3.76,1.45-7.52,5.21-8.4,3.76-.88,7.52,1.45,8.4,5.21Z"/>
      </g>
      <g>
        <rect class="cls-3" x="68.29" y="109.25" width="30.94" height="4" transform="translate(-35.77 182.7) rotate(-83.9)"/>
        <path class="cls-3" d="m84.18,126.18c0,2.92-3.87,5.28-8.65,5.28s-8.65-2.36-8.65-5.28,3.87-5.28,8.65-5.28,8.65,2.36,8.65,5.28Z"/>
        <rect class="cls-3" x="95.87" y="109.25" width="30.94" height="4" transform="translate(-11.12 210.13) rotate(-83.9)"/>
        <path class="cls-3" d="m111.76,126.18c0,2.92-3.87,5.28-8.65,5.28s-8.65-2.36-8.65-5.28,3.87-5.28,8.65-5.28,8.65,2.36,8.65,5.28Z"/>
        <polygon class="cls-3" points="114.54 101.85 82.81 101.85 83.76 92.63 115.87 92.63 114.54 101.85"/>
      </g>
      <g>
        <rect class="cls-2" x="83.45" y="50.25" width="30.94" height="4" transform="translate(36.45 145.06) rotate(-83.9)"/>
        <path class="cls-2" d="m99.33,67.18c0,2.91-3.87,5.28-8.65,5.28s-8.65-2.36-8.65-5.28,3.87-5.28,8.65-5.28,8.65,2.36,8.65,5.28Z"/>
        <polygon class="cls-2" points="114.37 42.85 97.97 42.85 98.46 33.63 115.06 33.63 114.37 42.85"/>
      </g>
    </g>
  </g>
</svg>