<?xml version="1.0" encoding="UTF-8"?>
<svg id="Capa_2" data-name="Capa 2" xmlns="http://www.w3.org/2000/svg" viewBox="0 0 143.75 132.63">
  <defs>
    <style>
      .cls-1 {
        fill: #ed8149;
        fill-rule: evenodd;
      }
    </style>
  </defs>
  <g id="Capa_1-2" data-name="Capa 1">
    <path class="cls-1" d="m66.02,126.14l4.14,2.83,4.28,3.31,2.49.35,4.39-.23,2.53-3.04,3.71-2.42,1.79-2.1,5.51-2.87,1.01-2.79,1.78-1.94,5.05-1.01,2.48-1.16-.15-2.17-3.42-.7-3.41.39-4.97-1.63.7-3.57-1.16-2.17,3.03-4.66-.78-2.02-2.33-2.17-2.25-.85-1.4-2.64,3.1.94,3.34.54,3.34,1.87,3.73-.23,4.81-.62,1.17.78,3.41-1.16,3.49-3.11,3.03-.31,1.79.85,4.81-2.02,3.49-.31,5.59-3.96,1.01-2.56-.24-2.48-4.03-3.34-2.79-3.88-1.01-2.72,2.17-2.02.47-3.26,1.48-1.71,1.7.78,1.48-.78,1.86.7,3.5-1.55v-2.56l-1.79-1.4-2.87-.16-.78-2.33-.85-1.47,2.95-3.49,1.63.16,2.25-1.7,3.18-3.81.32-1.01-.56-.36-4.12-1.87-1.48-.04-1.44.58-2.18-.46-1.21.03-1.75.78-3.46.55-2.53-.27-1.28-.18,2.25-.39,1.24.15,1.55-1.01.93-1.71,2.25-1.71.46-1.08-1.47-1.01.16-.7-.62-1.71-2.95-1.55-3.57-.93-1.09-1.09-1.32-.85-2.1-.08-.7-1.01-2.17-.93-1.17.08.08,1.78-1.4-1.86-.85-2.1-2.17-1.08-.62-1.16,1.17-.93,4.81.16,1.78-1.17,3.03-.31.31-1.78-2.79.54-4.81-1.01-3.49.47-2.33-.16-4.73,1.71-1.63-.7-1.94.23-3.96,2.8-2.02.46-2.4,1.25-.93,1.16-3.18.39-1.01.62-1.63-.54-4.73-3.18-.93-1.94-1.4-.23-5.28.39-10.17,1.71h-4.97l-1.94-1.01-.77-1.55v-1.87l1.24-.08-.23-2.17-2.17-2.95-2.02-.54-5.12.39-2.33-1.32-1.71-.08-1.4.47-1.79-2.87v-2.87l-.77-3.57-1.01-.39-3.03,1.24-2.95,3.49.7,2.33,1.01.93,2.02-1.08,1.94.16,1.71,1.86-.31,1.32-1.86.54-2.17-1.01-1.01-.7-.47.63-.07.85-2.49,1.32-4.73.85-4.73,2.02-1.48,1.87v1.78l1.2,2.25v4.35l.47,2.96.93,2.49-1.55,3.26-3.73,2.18-1.87-.31v-3.11l-2.18-2.49-.62-2.18,2.02-1.71.16-1.24,4.04-4.04v-3.42l-1.28-2.23.16-1.01-.08-1.32-1.71-1.24-.85-1.79.55-1.48,2.48-1.08,2.56-.62,2.26-2.6-1.2-.03-.51.39-5.52,2.14-3.22,4.98-1.01,1.24-1.86.46-1.71,2.49-1.71,1.47-3.42,4.89-.62,2.17.7,1.86-.31,3.57-1.63,3.49-.23,1.09,1.39-.16,1.87.08,4.25,7.8,1.9,2.88.54,2.03-1.09,2.34.16,1.48-.74,1.25.12,1.56,2.45,2.02,3.03,1.33,1.9.23,2.26,1.09,1.75-.9,2.76.08,2.6.78.78-.66,3.11-.55,3.42.66,1.94.82,8.13,8.02,2.96-.62.78.67.86-.31,2.18.66,1.4.78,2.02-1.13,2.14-.04,2.95.27.55-.58,1.86-.08,1.75.89.66,4.17-.85,1.72v1.91l-.7,1.32-2.57.78-1.21,1.48.62,3.85.23,1.4-.82,2.69.08,3.42,1.17,1.71.08,1.24,2.33,5.75-3.49,6.35.31,1.55,1.17.39,1.05-.78.46.5.47,1.71,1.05.63,1.13,2.14-.58,1.21,1.25,2.73,2.14,5.45.2,2.07-.14.02h0ZM51.73,3.26l2.09-.15,2.02,2.02-.47,1.78-1.24-1.63-1.47-.23-.93-1.79h0Zm-7.14-.93l2.02,2.33,1.86.23-1.08,1.17-2.41-.55-1.01-2.09.62-1.09h0Zm-10.24-2.33l1.4,1.94,2.1-.08-1.86-1.71-1.63-.16h0Zm60.67,18.33l2.22-1.64,1.05,1.4,3.19-2.41.93,1.44-1.71,2.1-2.18-.58-2.37.51s-1.09-.86-1.13-.82Z"/>
  </g>
</svg>