<?xml version="1.0" encoding="utf-8"?>
<!-- Generator: Adobe Illustrator 24.3.0, SVG Export Plug-In . SVG Version: 6.00 Build 0)  -->
<svg version="1.1" id="Capa_1" xmlns="http://www.w3.org/2000/svg" xmlns:xlink="http://www.w3.org/1999/xlink" x="0px" y="0px"
	 viewBox="0 0 208.5 158.5" style="enable-background:new 0 0 208.5 158.5;" xml:space="preserve">
<style type="text/css">
	.st0{fill:#2BA250;}
	.st1{fill:#2AAFD5;}
	.st2{fill:#C12106;}
</style>
<g>
	<g>
		<g>
			<path class="st0" d="M79.2,137.3c0.1,0.4,0.1,1,0.2,1c0,0.1,0.1,0.5,0.2,0.7c0.2,0.5,0.4,0.9,0.7,1.4c0.6,0.8,1.5,1.6,2.6,2.1
				c2.2,1,4.9,1,6.9-0.2c0.5-0.3,1-0.6,1.4-1c0.2-0.2,0.4-0.4,0.7-0.7c0.4-0.4,0.4-0.5,0.5-0.7c0.6-0.9,1-2.1,1.2-3.5
				c0.3-2.8-0.2-6-1.2-9.2c-0.5-1.6-1-3.2-1.6-4.9l-0.9-2.6l-0.9-2.5l-3.6-10.1c-2.5-6.6-5-13.3-7.6-20l-7.9-20
				c-2.5-6.4-5.9-12.9-8.3-19.9c-1.2-3.5-2.2-7.2-2.7-11c-0.5-3.8-0.5-7.8,0.6-11.7c1-3.9,3-7.5,5.7-10.5c2.7-3,5.9-5.2,9.3-7
				l0.3-0.2l0.3-0.1c2.1-0.5,4-0.2,5.6,0.3c1.7,0.5,3.2,1.2,4.5,2.1c2.8,1.7,5.1,4,6.9,6.7c1.8,2.7,3.1,6,3.2,9.5
				c0.1,3.5-0.9,7-2.7,9.9l-0.3,0.5l-0.1,0.1l0,0.1l-0.1,0.2l-0.2,0.2l-0.6,0.8l-1.3,1.7l-2.5,3.4c-1.8,2.2-3.6,4.6-5.4,6.7
				c-3.7,4.4-7.4,8.6-11.1,12.8c-3.7,4.2-7.3,8.4-10.7,12.8c-3.6,4.1-6,8.3-7.4,13.2c-1.4,4.8-1.6,9.9-0.5,14.6
				c1.1,4.7,3.7,8.9,7.4,11.4c3.7,2.6,8.6,3.6,13.6,3.2c5-0.3,10.1-1.9,14.8-4.1c4.7-2.2,9.2-5.2,12.8-8.8c3.5-3.6,6.3-8,6.3-12.4
				c0.1-4.3-2.7-8.3-7-11.3c-1.9-1.4-4.2-2.6-6.5-3.3c-2.3-0.7-4.8-1-7.2-0.8c-4.8,0.4-9.5,2.9-12.7,6.7c-3.2,3.8-4.8,8.9-4.6,14
				c0,1.2-0.9,2.3-2.2,2.3c-1.2,0-2.2-0.9-2.3-2c-0.5-6.1,1.1-12.6,5-17.6c3.9-5,9.8-8.5,16.1-9.3c3.2-0.4,6.4-0.2,9.5,0.6
				c3.1,0.8,5.9,2.2,8.7,4.1c0.7,0.5,1.2,0.9,1.8,1.3c0.7,0.6,1.3,1,1.9,1.6c1.2,1.1,2.3,2.3,3.2,3.7c1.9,2.8,3.1,6.3,3.2,9.8
				c0.1,3.5-0.9,6.9-2.4,9.8c-1.5,2.9-3.4,5.4-5.5,7.7c-4.3,4.5-9.3,8-14.7,10.7c-5.4,2.6-11.3,4.5-17.6,5c-1.6,0.1-3.1,0.1-4.7,0.1
				c-1.7-0.1-3.2-0.3-4.8-0.6c-3.2-0.7-6.4-2-9.1-3.9c-5.7-3.8-9.3-9.9-10.9-16.1c-1.6-6.3-1.3-12.8,0.4-18.8c0.9-3,2-6,3.6-8.7
				c0.4-0.7,0.8-1.4,1.3-2.1c0.5-0.7,0.8-1.2,1.3-1.8l0.2-0.2l0.3-0.4l0.3-0.4l0.7-0.8l1.4-1.7c3.5-4.5,7.4-8.7,11.3-12.9
				c3.9-4.1,7.8-8.1,11.5-12.3c1.9-2,3.6-4.1,5.5-6.2l2.7-3.3l1.3-1.6l0.7-0.8l0.2-0.2c0,0-0.2,0.2-0.1,0.1l0,0L87,32l0.2-0.4
				c1.3-1.9,2-4,2-6.1c0-2.1-0.7-4.4-1.9-6.4c-1.2-2-3-3.8-5-5.1c-1.9-1.3-4.4-2.1-5.8-1.8l0.7-0.2c-3,1.5-5.7,3.4-7.8,5.8
				c-2.2,2.3-3.7,5.1-4.5,8.2c-0.8,3-0.8,6.3-0.4,9.6c0.5,3.3,1.3,6.6,2.5,9.9c1.1,3.3,2.5,6.5,4,9.7c1.4,3.2,3,6.5,4.4,10
				c2.7,6.6,5.3,13.3,8,19.9c2.8,6.6,5.4,13.3,8.1,20l3.8,10.1l0.9,2.5L97,120c0.7,1.7,1.3,3.5,1.9,5.3c1.1,3.6,2.1,7.5,1.8,11.9
				c-0.2,2.2-0.8,4.5-2.1,6.7c-0.3,0.5-0.9,1.2-1.1,1.5c-0.3,0.3-0.7,0.9-1.1,1.3c-0.8,0.9-1.8,1.6-2.8,2.2
				c-4.2,2.5-9.4,2.7-13.8,0.9c-2.2-0.9-4.3-2.3-5.9-4.3c-0.8-1-1.5-2.1-2-3.2c-0.3-0.6-0.5-1.1-0.6-1.9c-0.2-0.8-0.3-1.2-0.4-1.6
				c-0.4-2.3,1-4.4,3.3-4.9c2.3-0.4,4.4,1,4.9,3.3C79.1,137.2,79.2,137.3,79.2,137.3z"/>
			<path class="st0" d="M84.5,136.9c0.9,3.7-1.4,7.5-5.2,8.4c-3.7,0.9-7.5-1.4-8.4-5.2c-0.9-3.7,1.4-7.5,5.2-8.4
				C79.8,130.8,83.6,133.1,84.5,136.9z"/>
		</g>
		<g>
			
				<rect x="111.3" y="115.2" transform="matrix(0.1063 -0.9943 0.9943 0.1063 -3.2376 230.6906)" class="st1" width="30.8" height="4"/>
			<path class="st1" d="M127.1,132c0,2.9-3.8,5.2-8.6,5.2c-4.7,0-8.6-2.4-8.6-5.2c0-2.9,3.8-5.2,8.6-5.2
				C123.3,126.7,127.1,129.1,127.1,132z"/>
			
				<rect x="138.8" y="115.2" transform="matrix(0.1063 -0.9943 0.9943 0.1063 21.2693 257.9585)" class="st1" width="30.8" height="4"/>
			<path class="st1" d="M154.6,132c0,2.9-3.8,5.2-8.6,5.2c-4.7,0-8.6-2.4-8.6-5.2c0-2.9,3.8-5.2,8.6-5.2
				C150.7,126.7,154.6,129.1,154.6,132z"/>
			<polygon class="st1" points="157.3,107.8 125.8,107.8 126.7,98.6 158.6,98.6 			"/>
		</g>
		<g>
			
				<rect x="126.4" y="56.5" transform="matrix(0.1063 -0.9943 0.9943 0.1063 68.5596 193.2687)" class="st2" width="30.8" height="4"/>
			<path class="st2" d="M142.2,73.3c0,2.9-3.8,5.2-8.6,5.2c-4.7,0-8.6-2.3-8.6-5.2c0-2.9,3.8-5.2,8.6-5.2
				C138.4,68.1,142.2,70.4,142.2,73.3z"/>
			<polygon class="st2" points="157.2,49.1 140.8,49.1 141.3,40 157.8,40 			"/>
		</g>
	</g>
</g>
</svg>
