<?xml version="1.0" encoding="utf-8"?>
<!-- Generator: Adobe Illustrator 24.3.0, SVG Export Plug-In . SVG Version: 6.00 Build 0)  -->
<svg version="1.1" id="Capa_1" xmlns="http://www.w3.org/2000/svg" xmlns:xlink="http://www.w3.org/1999/xlink" x="0px" y="0px"
	 viewBox="0 0 208.5 158.5" style="enable-background:new 0 0 208.5 158.5;" xml:space="preserve">
<style type="text/css">
	.st0{fill:#D1DCE3;}
	.st1{fill:#B84C1D;}
	.st2{fill:#FDC63A;}
	.st3{fill:#FFE084;}
	.st4{fill:#F4E1D4;}
	.st5{fill:#702F07;}
	.st6{fill:#8C4013;}
	.st7{fill:#9C472B;}
	.st8{fill:#C2622F;}
	.st9{fill:#541E0A;}
</style>
<g>
	<path class="st0" d="M63.6,133c0,7.4,16.1,17.4,35.9,17.4c19.9,0,36-10.1,36-17.4c0-7.4-16.1-35.2-36-35.2
		C79.7,97.8,63.6,125.7,63.6,133z"/>
	<path class="st1" d="M177.5,59.7c-2.1-12.3-13.1-20.9-25.2-14.7c-7.6,3.9-9.8,22.2,1.7,18.5c1.3-0.4,2.1-1.5,2.1-2.8
		c0.1-2.7-1.3-4.2,1.6-6.4c5.1-3.8,8.1,3.6,8.5,6.9c1,7.6-1.8,15.6-5.1,22.3c-6.2,12.5-15.8,11.8-28,14.7
		c-7.5,1.8-4.3,13.4,3.2,11.6c10.8-2.6,21.2-2.7,29-11.5C174,88.7,179.7,72.6,177.5,59.7z"/>
	<path class="st1" d="M63.6,133c0,7.4,16.1,17.4,35.9,17.4c19.9,0,36-10.1,36-17.4c0-7.4-16.1-35.2-36-35.2
		C79.7,97.8,63.6,125.7,63.6,133z"/>
	<path class="st2" d="M154.5,28.4c0-8.1-24.8-20.1-55-20.1c-30.2,0-55,11.9-55,20.1c0,19,0,105.1,55,105.1
		C154.5,133.6,154.5,47.4,154.5,28.4z"/>
	<path class="st3" d="M154.5,28.4c0-11.2-24.6-20.4-55-20.4c-30.4,0-55,9.1-55,20.4c0,11.3,24.6,20.4,55,20.4
		C129.9,48.8,154.5,39.7,154.5,28.4z"/>
	<path class="st1" d="M99.5,44.1c-26.7,0-49.3-7.5-49.3-16.3c0-8.8,22.6-16.3,49.3-16.3c26.7,0,49.3,7.5,49.3,16.3
		C148.9,36.6,126.3,44.1,99.5,44.1z"/>
	<path class="st4" d="M99.5,44.1c19.6,0,37-4,44.8-9.6c-1.6-7.6-21.5-13.8-44.8-13.8c-23.3,0-43.2,6.2-44.8,13.8
		C62.6,40.1,79.9,44.1,99.5,44.1z"/>
	<g>
		<path class="st5" d="M114.9,36.6c0-0.2-0.2-0.4-0.6-0.4c-0.3,0-0.6,0.1-0.7,0.2c0,0.2,0.2,0.4,0.6,0.4
			C114.6,36.9,114.9,36.8,114.9,36.6z"/>
		<path class="st6" d="M121.3,38.5c0-0.6-0.7-1.1-1.5-1.2c-0.8,0-1.5,0.5-1.5,1.1c0,0.6,0.7,1.1,1.5,1.2
			C120.6,39.7,121.3,39.2,121.3,38.5z"/>
		<path class="st6" d="M123.3,34.1c0-0.3-0.3-0.6-0.7-0.6c-0.4,0-0.7,0.2-0.7,0.5c0,0.3,0.3,0.6,0.7,0.6
			C123,34.6,123.3,34.4,123.3,34.1z"/>
		<path class="st7" d="M121.9,31.6c0-0.3-0.4-0.5-0.9-0.6c-0.5,0-0.9,0.2-0.9,0.5c0,0.3,0.4,0.5,0.9,0.6
			C121.4,32.1,121.8,31.9,121.9,31.6z"/>
		<path class="st8" d="M121.4,36.5c0.1-0.8-0.6-1.5-1.5-1.6c-0.9-0.1-1.7,0.5-1.8,1.3c-0.1,0.8,0.6,1.5,1.5,1.6
			C120.5,37.9,121.3,37.3,121.4,36.5z"/>
		<path class="st6" d="M118.1,32.6c0-0.2-0.3-0.5-0.6-0.5c-0.4,0-0.7,0.1-0.8,0.4c0,0.2,0.3,0.5,0.6,0.5
			C117.7,33,118.1,32.8,118.1,32.6z"/>
		<path class="st5" d="M116,31.9c0-0.5-0.5-0.9-1.2-0.9c-0.7,0-1.2,0.4-1.2,0.8c0,0.5,0.5,0.9,1.2,0.9C115.4,32.8,116,32.4,116,31.9
			z"/>
		<path class="st8" d="M113.9,32.4c0-0.4-0.3-0.7-0.8-0.7c-0.4,0-0.8,0.3-0.8,0.7c0,0.4,0.3,0.7,0.8,0.7
			C113.5,33.1,113.9,32.8,113.9,32.4z"/>
		<path class="st8" d="M114.6,37.9c0-0.6-0.5-1.1-1.1-1.1c-0.6,0-1.1,0.5-1.1,1c0,0.6,0.5,1.1,1.1,1.1
			C114.1,38.9,114.6,38.5,114.6,37.9z"/>
		<path class="st6" d="M112.5,37.1c0-0.3-0.3-0.4-0.7-0.4c-0.4,0-0.7,0.2-0.7,0.5c0,0.3,0.3,0.4,0.7,0.4
			C112.2,37.5,112.5,37.3,112.5,37.1z"/>
		<path class="st6" d="M111.6,37c0-0.4-0.6-0.8-1.3-0.8c-0.7,0-1.3,0.4-1.3,0.8c0,0.4,0.6,0.8,1.3,0.8
			C111.1,37.8,111.6,37.4,111.6,37z"/>
		<path class="st6" d="M110.2,38.6c0-0.3-0.3-0.5-0.6-0.5c-0.3,0-0.6,0.2-0.6,0.5c0,0.3,0.3,0.5,0.6,0.5
			C110,39.1,110.2,38.9,110.2,38.6z"/>
		<path class="st5" d="M109.6,39.8c0-0.4-0.3-0.8-0.7-0.8c-0.4,0-0.8,0.3-0.9,0.7c0,0.4,0.3,0.8,0.7,0.8
			C109.2,40.5,109.5,40.2,109.6,39.8z"/>
		<path class="st5" d="M105.2,37.7c0-0.5-0.7-0.8-1.5-0.8c-0.8,0-1.4,0.4-1.4,0.9c0,0.5,0.7,0.8,1.5,0.8
			C104.6,38.5,105.2,38.2,105.2,37.7z"/>
		<path class="st6" d="M103,39.1c0-0.3-0.3-0.6-0.8-0.7c-0.5-0.1-0.9,0.2-0.9,0.5c0,0.3,0.3,0.6,0.8,0.7
			C102.5,39.7,103,39.4,103,39.1z"/>
		<path class="st5" d="M101.3,36.4c0-0.4-0.5-0.8-1.2-0.8c-0.7-0.1-1.3,0.2-1.3,0.6c0,0.4,0.5,0.8,1.2,0.8
			C100.7,37.1,101.3,36.8,101.3,36.4z"/>
		<path class="st6" d="M100,41.8c0-0.3-0.3-0.5-0.7-0.5c-0.4,0-0.7,0.2-0.7,0.4c0,0.2,0.3,0.5,0.7,0.5C99.7,42.2,100,42.1,100,41.8z
			"/>
		<path class="st5" d="M101.9,40c0.1-0.8-0.6-1.4-1.4-1.5c-0.8-0.1-1.6,0.5-1.6,1.3c-0.1,0.8,0.6,1.4,1.4,1.5
			C101.1,41.4,101.8,40.8,101.9,40z"/>
		<path class="st5" d="M105.5,38.6c0-0.4-0.8-0.7-1.7-0.6c-0.9,0-1.6,0.4-1.6,0.7c0,0.4,0.8,0.7,1.7,0.6
			C104.8,39.3,105.5,39,105.5,38.6z"/>
		<path class="st8" d="M103.5,39.3c0.1-0.4-0.4-0.9-1-0.9c-0.6-0.1-1.2,0.2-1.2,0.7c-0.1,0.4,0.4,0.9,1,0.9
			C102.9,40.1,103.5,39.8,103.5,39.3z"/>
		<path class="st5" d="M100.8,33.6c0-0.4-0.3-0.7-0.8-0.7c-0.4,0-0.8,0.3-0.8,0.7c0,0.4,0.3,0.7,0.8,0.7
			C100.4,34.2,100.8,33.9,100.8,33.6z"/>
		<path class="st8" d="M103.7,34.7c0-0.3-0.3-0.5-0.7-0.6c-0.4-0.1-0.8,0.1-0.8,0.4c0,0.3,0.3,0.5,0.7,0.6
			C103.4,35.1,103.7,34.9,103.7,34.7z"/>
		<path class="st7" d="M109,37.5c0-0.4-0.5-0.8-1.2-0.9c-0.7-0.1-1.4,0.2-1.4,0.6s0.5,0.8,1.2,0.9C108.3,38.2,109,37.9,109,37.5z"/>
		<path class="st5" d="M106.3,31.6c0-0.2-0.3-0.4-0.6-0.4c-0.3,0-0.6,0.2-0.6,0.4c0,0.2,0.3,0.4,0.6,0.4
			C106,32,106.3,31.8,106.3,31.6z"/>
		<path class="st8" d="M109.4,34.3c0-0.4-0.5-0.8-1.1-0.8c-0.6,0-1.2,0.3-1.2,0.7c0,0.4,0.5,0.8,1.1,0.8
			C108.9,35,109.4,34.7,109.4,34.3z"/>
		<path class="st7" d="M114.1,32.9c0-0.3-0.5-0.6-1.1-0.6c-0.6,0-1.2,0.2-1.2,0.5c0,0.3,0.5,0.6,1.1,0.6
			C113.6,33.4,114.1,33.2,114.1,32.9z"/>
		<path class="st7" d="M116.7,34.5c0-0.7-0.6-1.3-1.4-1.4c-0.8,0-1.5,0.5-1.6,1.2c0,0.7,0.6,1.3,1.4,1.4
			C115.9,35.7,116.6,35.2,116.7,34.5z"/>
		<path class="st6" d="M115.3,32.5c0-0.4-0.4-0.7-0.9-0.8c-0.5,0-1,0.2-1,0.6c0,0.4,0.4,0.7,0.9,0.8
			C114.8,33.1,115.3,32.8,115.3,32.5z"/>
		<path class="st6" d="M115.4,31.4c0-0.5-0.4-0.9-1-0.9c-0.5,0-1,0.4-1,0.9c0,0.5,0.4,0.9,1,0.9C114.9,32.4,115.4,32,115.4,31.4z"/>
		<path class="st7" d="M117.9,32.8c0-0.7-0.7-1.2-1.6-1.2c-0.9,0-1.6,0.6-1.6,1.2c0,0.7,0.7,1.2,1.6,1.2
			C117.2,34,117.9,33.4,117.9,32.8z"/>
		<path class="st7" d="M121.1,33c0-0.3-0.5-0.6-1.2-0.6c-0.7,0-1.3,0.1-1.3,0.4c0,0.3,0.5,0.6,1.2,0.6
			C120.5,33.5,121.1,33.3,121.1,33z"/>
		<path class="st5" d="M122,34.4c0-0.5-0.6-0.8-1.3-0.8c-0.7,0-1.3,0.4-1.3,0.8c0,0.5,0.6,0.8,1.3,0.8C121.4,35.2,122,34.9,122,34.4
			z"/>
		<path class="st6" d="M114.4,31.6c0.1-0.5-0.6-1.1-1.4-1.2c-0.9-0.1-1.6,0.3-1.7,0.8c-0.1,0.5,0.6,1.1,1.4,1.2
			C113.6,32.5,114.3,32.1,114.4,31.6z"/>
		<path class="st5" d="M112.6,32.6c0-0.3-0.4-0.6-1-0.6c-0.6,0-1.1,0.2-1.1,0.5c0,0.3,0.4,0.6,1,0.6C112.1,33.2,112.6,33,112.6,32.6
			z"/>
		<path class="st5" d="M110.4,33.8c0-0.3-0.3-0.6-0.7-0.6c-0.4,0-0.7,0.2-0.7,0.5c0,0.3,0.3,0.6,0.7,0.6
			C110.1,34.3,110.4,34.1,110.4,33.8z"/>
		<path class="st5" d="M109.8,32.8c0.1-0.9-0.6-1.7-1.5-1.7c-0.9-0.1-1.7,0.6-1.7,1.5c-0.1,0.9,0.6,1.7,1.5,1.7
			C108.9,34.4,109.7,33.7,109.8,32.8z"/>
		<path class="st6" d="M108.4,33.9c0-0.4-0.5-0.8-1.3-0.8c-0.8-0.1-1.4,0.2-1.5,0.6c0,0.4,0.5,0.8,1.3,0.8
			C107.7,34.5,108.4,34.3,108.4,33.9z"/>
		<path class="st5" d="M106.8,34.7c0-0.8-0.6-1.4-1.4-1.4c-0.8,0-1.5,0.6-1.5,1.3c0,0.8,0.6,1.4,1.4,1.4
			C106.1,36,106.8,35.4,106.8,34.7z"/>
		<path class="st5" d="M105.5,34.5c0-0.6-0.5-1-1.2-1.1c-0.7,0-1.2,0.4-1.3,1c0,0.6,0.5,1,1.2,1.1C105,35.6,105.5,35.1,105.5,34.5z"
			/>
		<path class="st6" d="M103.1,33.9c0-0.3-0.4-0.6-0.9-0.6c-0.5,0-0.9,0.3-0.9,0.7c0,0.3,0.4,0.6,0.9,0.6
			C102.7,34.6,103.1,34.3,103.1,33.9z"/>
		<path class="st7" d="M101.7,32.9c0-0.4-0.5-0.8-1.2-0.8c-0.7,0-1.2,0.3-1.2,0.7c0,0.4,0.5,0.8,1.2,0.8
			C101.1,33.6,101.7,33.3,101.7,32.9z"/>
		<path class="st8" d="M99.8,32.5c0-0.4-0.7-0.8-1.5-0.8c-0.8,0-1.5,0.3-1.5,0.7c0,0.4,0.7,0.8,1.5,0.8
			C99.2,33.2,99.8,32.9,99.8,32.5z"/>
		<path class="st5" d="M96.5,31.3c0-0.3-0.3-0.5-0.8-0.5c-0.4,0-0.8,0.2-0.8,0.5c0,0.3,0.3,0.5,0.8,0.5
			C96.1,31.8,96.5,31.6,96.5,31.3z"/>
		<path class="st7" d="M96.7,34.4c0.1-0.6-0.4-1.2-1.1-1.3c-0.7-0.1-1.3,0.4-1.4,1c-0.1,0.6,0.4,1.2,1.1,1.3
			C96,35.5,96.6,35.1,96.7,34.4z"/>
		<path class="st6" d="M97,38.7c0-0.6-0.4-1.1-1.1-1.1c-0.6-0.1-1.2,0.4-1.2,0.9c0,0.6,0.4,1.1,1.1,1.1C96.4,39.7,96.9,39.2,97,38.7
			z"/>
		<path class="st6" d="M94.4,35.5c0.1-0.5-0.3-0.9-0.8-0.9c-0.5-0.1-1,0.3-1,0.7c-0.1,0.5,0.3,0.9,0.8,0.9
			C93.9,36.2,94.4,35.9,94.4,35.5z"/>
		<path class="st7" d="M93.4,37.9c0-0.3-0.3-0.6-0.7-0.6c-0.4,0-0.7,0.2-0.7,0.5c0,0.3,0.3,0.6,0.7,0.6C93,38.5,93.4,38.2,93.4,37.9
			z"/>
		<path class="st8" d="M89.2,34c0-0.5-0.7-0.9-1.6-0.9c-0.9,0-1.6,0.4-1.6,0.9c0,0.5,0.7,0.9,1.6,0.9C88.5,34.9,89.2,34.5,89.2,34z"
			/>
		<path class="st7" d="M88.3,37.2c0-0.4-0.4-0.7-0.9-0.7c-0.5,0-0.8,0.3-0.8,0.7c0,0.4,0.4,0.7,0.9,0.7C88,37.9,88.3,37.6,88.3,37.2
			z"/>
		<path class="st7" d="M89.3,37.8c0.1-0.7-0.6-1.3-1.4-1.4c-0.8-0.1-1.6,0.5-1.6,1.2c-0.1,0.7,0.6,1.3,1.4,1.4
			C88.5,39,89.3,38.5,89.3,37.8z"/>
		<path class="st6" d="M95.1,39.7c0-0.5-0.4-0.9-0.9-1c-0.5,0-1,0.3-1.1,0.8c0,0.5,0.4,0.9,0.9,1C94.6,40.6,95,40.2,95.1,39.7z"/>
		<path class="st6" d="M96,39.6c0.1-0.5-0.5-0.9-1.2-1c-0.7-0.1-1.4,0.2-1.4,0.7c-0.1,0.5,0.5,0.9,1.2,1
			C95.3,40.4,95.9,40.1,96,39.6z"/>
		<path class="st8" d="M96,36.3c0-0.5-0.4-1-1-1c-0.5,0-1,0.4-1,1c0,0.5,0.4,1,1,1C95.5,37.3,96,36.9,96,36.3z"/>
		<path class="st8" d="M93.3,30.7c0-0.3-0.4-0.6-1-0.6c-0.6,0-1,0.3-1,0.6c0,0.3,0.4,0.6,1,0.7C92.8,31.3,93.3,31,93.3,30.7z"/>
		<path class="st5" d="M100,35.8c0-0.8-0.7-1.4-1.6-1.5c-0.9,0-1.7,0.6-1.7,1.3c0,0.8,0.7,1.4,1.6,1.5C99.2,37.1,100,36.5,100,35.8z
			"/>
		<path class="st7" d="M97.6,33.4c0-0.2-0.3-0.4-0.7-0.4c-0.4,0-0.7,0.2-0.7,0.4c0,0.2,0.3,0.4,0.7,0.4
			C97.3,33.8,97.6,33.6,97.6,33.4z"/>
		<path class="st5" d="M100.1,32.3c0-0.3-0.6-0.6-1.4-0.6c-0.7,0-1.4,0.3-1.4,0.6c0,0.3,0.6,0.6,1.4,0.6
			C99.5,32.9,100.1,32.7,100.1,32.3z"/>
		<path class="st8" d="M100.4,29.2c0.1-0.7-0.5-1.2-1.3-1.3c-0.8-0.1-1.5,0.4-1.5,1.1c-0.1,0.7,0.5,1.2,1.3,1.3
			C99.7,30.3,100.4,29.8,100.4,29.2z"/>
		<path class="st6" d="M102.9,28.7c0-0.8-0.8-1.4-1.7-1.4c-0.9,0-1.7,0.7-1.7,1.5c0,0.8,0.8,1.4,1.7,1.4
			C102.1,30.2,102.9,29.5,102.9,28.7z"/>
		<path class="st5" d="M105.2,32.1c0-0.2-0.4-0.4-0.8-0.4c-0.4,0-0.8,0.2-0.8,0.4c0,0.2,0.4,0.4,0.8,0.4
			C104.8,32.5,105.2,32.3,105.2,32.1z"/>
		<path class="st7" d="M107,33.5c0-0.2-0.3-0.4-0.8-0.4c-0.4,0-0.8,0.1-0.8,0.3c0,0.2,0.3,0.4,0.8,0.4C106.6,33.9,107,33.7,107,33.5
			z"/>
		<path class="st5" d="M102.2,29.5c0.1-0.5-0.6-1.1-1.4-1.2c-0.9-0.1-1.6,0.3-1.7,0.8c-0.1,0.5,0.6,1.1,1.4,1.2
			C101.4,30.4,102.2,30,102.2,29.5z"/>
		<path class="st6" d="M98.6,29.1c0-0.5-0.7-0.8-1.5-0.8c-0.8,0-1.5,0.4-1.5,0.9c0,0.5,0.7,0.8,1.5,0.8C97.9,30,98.6,29.6,98.6,29.1
			z"/>
		<path class="st7" d="M97.5,34.5c0-0.4-0.4-0.8-0.9-0.8c-0.5,0-0.9,0.3-1,0.7c0,0.4,0.4,0.8,0.9,0.8C97,35.3,97.4,34.9,97.5,34.5z"
			/>
		<path class="st6" d="M94.1,30.4c0-0.5-0.4-0.8-0.9-0.8c-0.5,0-0.9,0.4-0.9,0.8c0,0.5,0.4,0.8,0.9,0.8
			C93.7,31.2,94.1,30.9,94.1,30.4z"/>
		<path class="st7" d="M92,28.7c0-0.3-0.5-0.6-1.1-0.6c-0.6,0-1.1,0.3-1.1,0.6c0,0.3,0.5,0.6,1.1,0.6C91.6,29.3,92,29.1,92,28.7z"/>
		<path class="st7" d="M93.1,34.5c0-0.3-0.6-0.7-1.5-0.7c-0.8,0-1.5,0.2-1.5,0.5c0,0.3,0.6,0.7,1.4,0.7
			C92.4,35.1,93.1,34.9,93.1,34.5z"/>
		<path class="st6" d="M90.7,35.4c0-0.3-0.3-0.5-0.8-0.5c-0.4,0-0.8,0.2-0.8,0.5c0,0.3,0.3,0.5,0.8,0.5
			C90.4,35.8,90.7,35.6,90.7,35.4z"/>
		<path class="st7" d="M88.5,33.2c0-0.4-0.3-0.8-0.8-0.8c-0.5,0-0.8,0.3-0.9,0.7c0,0.4,0.3,0.8,0.8,0.8C88,33.9,88.4,33.6,88.5,33.2
			z"/>
		<path class="st5" d="M88.3,38.4c0-0.4-0.4-0.7-0.9-0.7c-0.5,0-1,0.3-1,0.6c0,0.4,0.4,0.7,0.9,0.7C87.8,39,88.3,38.7,88.3,38.4z"/>
		<path class="st7" d="M84.9,32.3c0-0.4-0.6-0.8-1.3-0.8c-0.7,0-1.3,0.4-1.3,0.8c0,0.4,0.6,0.8,1.3,0.8C84.3,33,84.9,32.7,84.9,32.3
			z"/>
		<path class="st5" d="M83,33.8c0-0.4-0.5-0.7-1.1-0.7c-0.6,0-1.1,0.4-1.1,0.8c0,0.4,0.5,0.7,1.1,0.7C82.5,34.5,83,34.2,83,33.8z"/>
		<path class="st5" d="M80.7,35.2c0-0.3-0.5-0.5-1.2-0.5c-0.7,0-1.2,0.2-1.2,0.5c0,0.3,0.5,0.5,1.2,0.5
			C80.2,35.7,80.8,35.5,80.7,35.2z"/>
		<path class="st5" d="M78.2,35.8c0-0.3-0.4-0.5-0.9-0.5c-0.5,0-0.9,0.3-0.8,0.6c0,0.3,0.4,0.5,0.9,0.5
			C77.8,36.4,78.2,36.1,78.2,35.8z"/>
		<path class="st6" d="M77.2,37.3c0.1-0.8-0.4-1.4-1.2-1.5c-0.8-0.1-1.5,0.4-1.5,1.2c-0.1,0.8,0.4,1.4,1.2,1.5
			C76.4,38.6,77.1,38,77.2,37.3z"/>
		<path class="st6" d="M76.9,35.7c0-0.4-0.4-0.8-1-0.9c-0.6-0.1-1.1,0.2-1.2,0.6c0,0.4,0.4,0.8,1,0.9C76.3,36.4,76.8,36.1,76.9,35.7
			z"/>
		<path class="st8" d="M79.3,35.8c0-0.3-0.4-0.5-0.9-0.5c-0.5,0-0.9,0.2-0.9,0.5c0,0.3,0.4,0.5,0.9,0.5
			C78.9,36.3,79.3,36.1,79.3,35.8z"/>
		<path class="st7" d="M84.1,37.9c0-0.5-0.7-1-1.6-1c-0.9-0.1-1.7,0.3-1.7,0.8c0,0.5,0.7,1,1.6,1C83.3,38.8,84.1,38.4,84.1,37.9z"/>
		<path class="st5" d="M84.1,38c0-0.4-0.5-0.8-1.3-0.9c-0.7-0.1-1.4,0.2-1.4,0.6c0,0.4,0.5,0.8,1.3,0.9C83.4,38.7,84.1,38.4,84.1,38
			z"/>
		<path class="st8" d="M83.8,33.4c0-0.4-0.7-0.7-1.6-0.7c-0.9,0-1.7,0.3-1.7,0.7c0,0.4,0.7,0.7,1.6,0.7
			C83.1,34.1,83.8,33.8,83.8,33.4z"/>
		<path class="st5" d="M86.4,36.2c0-0.4-0.7-0.8-1.6-0.8c-0.9,0-1.6,0.3-1.6,0.7c0,0.4,0.7,0.8,1.6,0.8
			C85.7,36.9,86.4,36.6,86.4,36.2z"/>
		<path class="st8" d="M88,37.2c0-0.5-0.6-0.9-1.3-0.9c-0.8,0-1.4,0.3-1.4,0.8c0,0.5,0.6,0.9,1.3,0.9C87.4,38,88,37.7,88,37.2z"/>
		<path class="st6" d="M86.3,31c0-0.3-0.3-0.5-0.8-0.5c-0.4,0-0.8,0.2-0.8,0.5c0,0.3,0.3,0.5,0.8,0.5C86,31.4,86.3,31.2,86.3,31z"/>
		<path class="st5" d="M89.2,35.7c0-0.6-0.6-1.1-1.3-1.1c-0.7,0-1.3,0.5-1.3,1.1c0,0.6,0.6,1.1,1.3,1.1
			C88.6,36.8,89.2,36.3,89.2,35.7z"/>
		<path class="st7" d="M89.5,32.2c0-0.7-0.7-1.2-1.5-1.2c-0.9,0-1.6,0.5-1.6,1.2c0,0.7,0.7,1.2,1.5,1.2
			C88.8,33.4,89.5,32.9,89.5,32.2z"/>
		<path class="st6" d="M91.2,31.1c0-0.5-0.6-0.9-1.4-0.9c-0.8,0-1.4,0.4-1.4,0.9c0,0.5,0.6,0.9,1.4,0.9
			C90.5,32.1,91.2,31.6,91.2,31.1z"/>
		<path class="st6" d="M93.5,36c0-0.3-0.4-0.6-0.9-0.7c-0.5,0-1,0.2-1,0.5c0,0.3,0.4,0.6,0.9,0.7C93,36.5,93.4,36.3,93.5,36z"/>
		<path class="st8" d="M95.9,35.9c0-0.3-0.5-0.6-1.2-0.6c-0.7,0-1.3,0.2-1.3,0.5c0,0.3,0.5,0.6,1.2,0.6
			C95.3,36.4,95.9,36.2,95.9,35.9z"/>
		<path class="st8" d="M91.2,30.2c0.1-0.6-0.5-1.1-1.1-1.1c-0.7-0.1-1.3,0.4-1.3,0.9c-0.1,0.6,0.5,1.1,1.1,1.2
			C90.6,31.2,91.2,30.7,91.2,30.2z"/>
		<path class="st7" d="M89.2,29.4c0-0.2-0.3-0.4-0.6-0.4c-0.4,0-0.7,0.1-0.7,0.3c0,0.2,0.3,0.4,0.6,0.4
			C88.9,29.7,89.2,29.6,89.2,29.4z"/>
		<path class="st5" d="M87.5,30.3c0-0.2-0.3-0.4-0.8-0.4c-0.4,0-0.8,0.1-0.8,0.3c0,0.2,0.3,0.4,0.8,0.4
			C87.1,30.6,87.5,30.4,87.5,30.3z"/>
		<path class="st8" d="M85.8,30.4c0-0.4-0.5-0.7-1.2-0.8c-0.7-0.1-1.3,0.2-1.4,0.6c0,0.4,0.5,0.7,1.2,0.8
			C85.2,31,85.8,30.8,85.8,30.4z"/>
		<path class="st5" d="M83.5,29.2c0-0.6-0.5-1.1-1.1-1.1c-0.6,0-1.1,0.5-1.1,1.1c0,0.6,0.5,1.1,1.1,1.1C83,30.2,83.5,29.7,83.5,29.2
			z"/>
		<path class="st6" d="M82.4,31.4c0-0.5-0.7-0.9-1.6-0.9c-0.9,0-1.6,0.4-1.6,0.9c0,0.5,0.7,0.9,1.6,0.9C81.7,32.4,82.4,32,82.4,31.4
			z"/>
		<path class="st8" d="M79.2,29.9c0-0.2-0.3-0.3-0.7-0.3c-0.4,0-0.7,0.1-0.7,0.3c0,0.2,0.3,0.3,0.7,0.3
			C78.9,30.3,79.2,30.1,79.2,29.9z"/>
		<path class="st6" d="M78.5,32c0-0.5-0.5-1-1.1-1c-0.7,0-1.2,0.4-1.2,0.9c0,0.5,0.5,1,1.1,1C77.9,32.9,78.5,32.5,78.5,32z"/>
		<path class="st5" d="M76.9,33.1c0-0.5-0.4-1-1-1c-0.6,0-1.1,0.3-1.1,0.8c0,0.5,0.4,1,1,1C76.4,34,76.9,33.6,76.9,33.1z"/>
		<path class="st8" d="M74.8,32.6c0-0.3-0.5-0.6-1.2-0.7c-0.7-0.1-1.3,0.2-1.3,0.5c0,0.3,0.5,0.6,1.2,0.7
			C74.2,33.1,74.8,32.9,74.8,32.6z"/>
		<path class="st6" d="M74.4,35.2c0.1-0.6-0.4-1.2-1-1.3c-0.6-0.1-1.2,0.3-1.3,1c-0.1,0.6,0.4,1.2,1,1.3
			C73.8,36.2,74.3,35.8,74.4,35.2z"/>
		<path class="st5" d="M72.3,35.6c0-0.4-0.5-0.8-1.1-0.9c-0.7-0.1-1.2,0.2-1.3,0.6c0,0.4,0.4,0.8,1.1,0.9
			C71.7,36.2,72.3,36,72.3,35.6z"/>
		<path class="st9" d="M76,36.1c-0.3-0.5-0.8-0.2-1.1,0.1c-0.5,0.4-1,0.8-1.6,1.2c-0.6,0.4-0.1,1.3,0.5,0.9c0.4-0.2,0.8-0.5,1.2-0.8
			c0.4-0.3,0.8-0.5,1-0.9C76.1,36.4,76.1,36.2,76,36.1z"/>
		<path class="st9" d="M80.5,32.3c-0.2,0.1-0.3,0.3-0.4,0.5c-0.1-0.3-0.4-0.5-0.8-0.4c-0.5,0.2-0.9,0.6-1.2,1
			c-0.4,0.5-0.8,0.9-1.3,1.3c-0.3,0.2,0.1,0.7,0.4,0.5c0.5-0.3,1-0.5,1.5-0.8c0.5-0.2,1.1-0.5,1.4-1c0,0,0-0.1,0-0.1
			c0.4-0.2,0.7-0.3,0.9-0.7C81.1,32.3,80.7,32.1,80.5,32.3z"/>
		<path class="st9" d="M84.5,29.5c-0.4,0.1-0.7,0.3-0.9,0.5c-0.4-0.4-1.1,0-1.6,0.2c-0.6,0.3-1.1,0.7-1.4,1.3
			c-0.2,0.4,0.2,0.9,0.6,0.6c0.6-0.3,1.1-0.6,1.7-0.9c0.2-0.1,0.5-0.3,0.7-0.6c0.6,0.2,0.9-0.4,1.2-0.8C85,29.8,84.7,29.5,84.5,29.5
			z"/>
		<path class="st9" d="M90.8,32.8c-0.4,0-0.6,0.1-1,0.2c-0.3,0.2-0.5,0.4-0.8,0.7c-0.5,0.5-1,1.1-0.8,1.8c0,0,0,0,0,0
			c-0.2-0.1-0.4-0.1-0.6,0c-0.3,0.3-0.5,0.6-0.7,0.9c-0.2,0.3,0.2,0.7,0.5,0.5c0.3-0.2,0.7-0.4,1-0.6c0.2-0.2,0.2-0.4,0.1-0.5
			c0.1,0.1,0.2,0.1,0.4,0.1c0.6-0.1,1-0.5,1.4-0.9c0.2-0.2,0.4-0.3,0.6-0.5c0.3-0.2,0.4-0.5,0.5-0.9C91.6,33.3,91.3,32.8,90.8,32.8z
			"/>
		<path class="st9" d="M93.8,30.6c-0.2,0.1-0.4,0.2-0.6,0.4c-0.1,0-0.1,0-0.2,0.1c-0.2,0.2-0.5,0.2-0.7,0.4
			c-0.2,0.1-0.4,0.3-0.6,0.5c-0.2,0.2-0.5,0.7-0.3,1c0.2,0.2,0.6,0.1,0.8,0c0.2-0.1,0.4-0.3,0.6-0.5c0.1-0.1,0.2-0.3,0.3-0.4
			c0.3-0.3,0.7-0.6,0.9-1C94.1,30.8,93.9,30.6,93.8,30.6z"/>
		<path class="st9" d="M96.1,29.5c0.2-0.4-0.1-1-0.6-0.9c-0.2,0.1-0.4,0-0.6,0.2c-0.2,0.2-0.5,0.4-0.5,0.7c-0.1,0.4,0,1,0.5,1.1
			c0.3,0,0.6-0.1,0.9-0.4c0.1-0.1,0.2-0.3,0.3-0.4C96,29.8,96.2,29.3,96.1,29.5z"/>
		<path class="st9" d="M104.3,26.9c-0.3,0-0.6,0-0.9,0.1c-0.4,0.1-0.7,0.4-1,0.7c-0.5,0.5-1.2,1.1-1.3,1.9c0,0,0,0.1,0,0.1
			c-0.3,0.3-0.6,0.7-0.6,1.2c0,0,0,0,0,0.1c-0.1,0-0.2,0-0.2,0.1c-0.4,0.4-0.8,0.8-1.1,1.2c-0.2,0.3-0.5,0.8-0.2,1.2
			c0.6,0.7,1.8-1.5,2-1.8c0.1-0.2,0.1-0.4-0.1-0.5c0.4-0.2,0.7-0.5,0.9-0.9c0.7-0.1,1-0.7,1.4-1.2c0.2-0.2,0.5-0.5,0.7-0.7
			c0.2-0.3,0.3-0.6,0.6-0.8C104.9,27.2,104.6,26.8,104.3,26.9z"/>
		<path class="st9" d="M98.2,34.2c-0.4,0.4-0.7,0.8-1,1.3c-0.4,0.5-0.7,1-0.9,1.7c-0.1,0.2,0.1,0.6,0.4,0.5c1.2-0.4,1.8-1.9,2.1-3.1
			C99,34.2,98.5,33.9,98.2,34.2z"/>
		<path class="st9" d="M95.5,37.9c-0.4,0.5-0.8,0.9-1.2,1.4c-0.2,0.2-0.4,0.5-0.5,0.8c-0.1,0.2,0,0.4,0,0.6c0,0.1,0.1,0.2,0.3,0.2
			c0.7,0,1-0.3,1.4-0.8c0.4-0.6,0.7-1.2,0.9-1.8C96.6,37.8,95.8,37.5,95.5,37.9z"/>
		<path class="st9" d="M107.2,35.5c-0.9-0.6-1.9,0.8-2.1,1.8c-0.3,0.3-0.5,0.6-0.6,0.8c-0.7,1.1-1,2.3-1.6,3.5
			c-0.1,0.3,0.2,0.5,0.4,0.4c1-0.6,1.7-1.4,2.4-2.3c0.4-0.5,1.4-1.7,1.2-2.5c0-0.1,0.1-0.2,0.1-0.3
			C107.3,36.6,107.6,35.8,107.2,35.5z"/>
	</g>
</g>
</svg>
