<?xml version="1.0" encoding="utf-8"?>
<!-- Generator: Adobe Illustrator 24.3.0, SVG Export Plug-In . SVG Version: 6.00 Build 0)  -->
<svg version="1.1" id="Capa_1" xmlns="http://www.w3.org/2000/svg" xmlns:xlink="http://www.w3.org/1999/xlink" x="0px" y="0px"
	 viewBox="0 0 153.7 158.5" style="enable-background:new 0 0 153.7 158.5;" xml:space="preserve">
<style type="text/css">
	.st0{fill:#E51F4A;}
	.st1{fill:#FDC63A;}
	.st2{fill:#2BA250;}
	.st3{fill:#B05BEB;}
	.st4{fill:#ED8149;}
	.st5{fill:#FFFFFF;}
</style>
<g>
	<g>
		<path class="st0" d="M28.3,19.3c-5.4,0-9.8,4.4-9.8,9.8v108c0,5.4,4.4,9.8,9.8,9.8h49.4V19.3H28.3z"/>
		<path class="st0" d="M127.1,19.3H77.7v127.6h49.4c5.4,0,9.8-4.4,9.8-9.8v-108C136.9,23.8,132.5,19.3,127.1,19.3z"/>
	</g>
	<g>
		<rect x="28.3" y="29.1" class="st1" width="49.4" height="108"/>
		<rect x="77.7" y="29.1" class="st1" width="49.4" height="108"/>
	</g>
	<g>
		<path class="st2" d="M28.3,19.3c-5.4,0-9.8,4.4-9.8,9.8v18h59.2V19.3H28.3z"/>
		<path class="st2" d="M136.9,29.1c0-5.4-4.4-9.8-9.8-9.8H77.7v27.8h59.2V29.1z"/>
	</g>
	<rect x="44.8" y="19.3" class="st3" width="7.1" height="10.2"/>
	<rect x="104.4" y="19.3" class="st3" width="7.2" height="10.2"/>
	<rect x="45.9" y="13.5" class="st4" width="4.9" height="19.8"/>
	<rect x="105.6" y="13.5" class="st4" width="4.9" height="19.8"/>
	<g>
		<path class="st5" d="M61.3,71.7c2.1,0,4,0.3,5.7,1c1.7,0.6,3.2,1.5,4.4,2.6c1.2,1.1,2.1,2.4,2.8,3.9c0.6,1.5,1,3.2,1,5
			c0,1.6-0.2,3-0.6,4.4c-0.4,1.4-1.1,2.6-1.8,3.8c-0.7,1.2-1.7,2.3-2.7,3.5c-1.1,1.2-2.1,2.2-3.2,3.4l-8.4,8.6
			c1.1-0.3,2.1-0.5,3.2-0.7c1.1-0.2,2-0.3,3-0.3h8c1,0,1.8,0.3,2.3,0.9c0.5,0.5,0.9,1.3,0.9,2.1v5.3H45.5v-3c0-0.5,0.1-1.2,0.3-1.8
			c0.2-0.6,0.6-1.3,1.3-1.8l12.3-12.5c1.1-1.1,2-2,2.8-3.1c0.7-1,1.4-1.9,1.9-2.9c0.5-1,0.9-1.9,1.2-2.8c0.2-1,0.4-1.9,0.4-3
			c0-1.7-0.4-3-1.2-3.9c-0.9-1-2-1.4-3.7-1.4c-0.6,0-1.3,0.1-1.9,0.3c-0.5,0.2-1.1,0.4-1.5,0.7c-0.4,0.3-0.9,0.7-1.2,1.2
			c-0.3,0.4-0.6,1-0.7,1.5c-0.3,0.9-0.7,1.5-1.2,1.9c-0.5,0.4-1.2,0.6-1.9,0.6c-0.2,0-0.4,0-0.6,0c-0.2,0-0.4,0-0.6-0.1l-4.8-0.9
			c0.3-2.1,1-4,1.8-5.6c0.9-1.6,2-2.9,3.3-3.9c1.3-1.1,2.9-1.8,4.6-2.3C57.4,72,59.4,71.7,61.3,71.7z"/>
		<path class="st5" d="M110.7,93.6c0,3.7-0.4,7-1.2,9.8c-0.9,2.8-1.9,5-3.3,6.8c-1.4,1.8-3.1,3.2-5.1,4c-1.9,0.9-4,1.3-6.4,1.3
			c-2.2,0-4.4-0.4-6.3-1.3s-3.6-2.2-5-4c-1.4-1.8-2.6-4-3.3-6.8c-0.7-2.8-1.2-6-1.2-9.8c0-3.8,0.4-7,1.2-9.8c0.7-2.8,1.9-5,3.3-6.8
			c1.4-1.8,3.1-3.2,5-4c1.9-0.9,4-1.3,6.3-1.3c2.2,0,4.4,0.4,6.4,1.3c1.9,0.9,3.6,2.2,5.1,4c1.4,1.8,2.6,4,3.3,6.8
			C110.3,86.7,110.7,89.9,110.7,93.6z M101.3,93.6c0-3-0.2-5.4-0.5-7.2c-0.3-1.9-0.9-3.4-1.5-4.5c-0.6-1.1-1.3-1.8-2.1-2.2
			c-0.7-0.4-1.6-0.6-2.3-0.6c-0.9,0-1.6,0.2-2.3,0.6c-0.7,0.4-1.5,1.2-2,2.2c-0.6,1.1-1.1,2.6-1.5,4.5c-0.3,1.9-0.5,4.4-0.5,7.2
			c0,3,0.2,5.4,0.5,7.3c0.3,1.9,0.9,3.4,1.5,4.5c0.6,1.1,1.3,1.8,2,2.2c0.7,0.4,1.6,0.6,2.3,0.6c0.9,0,1.6-0.2,2.3-0.6
			c0.7-0.4,1.5-1.2,2.1-2.2c0.6-1.1,1.1-2.6,1.5-4.5C101.1,99,101.3,96.6,101.3,93.6z"/>
	</g>
</g>
</svg>
