<?xml version="1.0" encoding="utf-8"?>
<!-- Generator: Adobe Illustrator 24.3.0, SVG Export Plug-In . SVG Version: 6.00 Build 0)  -->
<svg version="1.1" id="Capa_1" xmlns="http://www.w3.org/2000/svg" xmlns:xlink="http://www.w3.org/1999/xlink" x="0px" y="0px"
	 viewBox="0 0 208.5 158.5" style="enable-background:new 0 0 208.5 158.5;" xml:space="preserve">
<style type="text/css">
	.st0{fill-rule:evenodd;clip-rule:evenodd;fill:#9A7C76;}
	.st1{fill-rule:evenodd;clip-rule:evenodd;fill:#FDDA8F;}
	.st2{fill-rule:evenodd;clip-rule:evenodd;fill:#F1B964;}
	.st3{fill:#F1B964;}
	.st4{fill-rule:evenodd;clip-rule:evenodd;fill:#FFFFFF;}
</style>
<g>
	<g>
		<rect x="49.8" y="116.3" class="st0" width="110.9" height="36.2"/>
		<rect x="67.7" y="125.2" class="st1" width="75" height="18.3"/>
		<path class="st2" d="M142.7,116.3c0-5.2-3.4-9.4-7.5-9.4h-60c-4.1,0-7.5,4.2-7.5,9.4H142.7z"/>
		<rect x="98.2" y="48.5" class="st2" width="14.1" height="58.4"/>
		<path class="st2" d="M163.1,6.5c0,32-25.9,57.9-57.9,57.9c-32,0-57.9-25.9-57.9-57.9H163.1z"/>
		<g>
			<path class="st3" d="M57.4,16.4H29.9c0.9,6.1,4.5,11.4,9.6,15.3c6.6,5.1,15.9,8.1,25.6,8.1v6.5c-11.2,0-21.9-3.5-29.6-9.5
				c-7.5-5.8-12.4-14-12.4-23.8V9.8h3.3h31V16.4z"/>
			<path class="st3" d="M153.1,16.4h27.5c-0.9,6.1-4.5,11.4-9.6,15.3c-6.6,5.1-15.9,8.1-25.6,8.1v6.5c11.2,0,21.9-3.5,29.6-9.5
				c7.5-5.8,12.4-14,12.4-23.8V9.8h-3.3h-31V16.4z"/>
		</g>
	</g>
	<polygon class="st4" points="105.2,15.6 109.5,28.7 123.2,28.6 112.1,36.7 116.3,49.7 105.2,41.6 94.2,49.7 98.4,36.7 87.3,28.6 
		101,28.7 	"/>
</g>
</svg>
