<?xml version="1.0" encoding="UTF-8"?>
<svg id="Capa_2" data-name="Capa 2" xmlns="http://www.w3.org/2000/svg" viewBox="0 0 42.19 42.19">
  <defs>
    <style>
      .cls-1 {
        fill: #fff;
      }

      .cls-2 {
        fill: #05601e;
      }
    </style>
  </defs>
  <g id="Capa_1-2" data-name="Capa 1">
    <g>
      <ellipse class="cls-1" cx="20.36" cy="21" rx="14.5" ry="16"/>
      <path class="cls-2" d="m20.46,0h1.27c5.18,0,10.08,2.2,14.72,6.6,3.26,3.95,5.05,7.53,5.38,10.73.25,1.51.37,2.47.37,2.88v1.74c0,2.81-.95,6.06-2.86,9.75-2.78,4.55-6.74,7.71-11.88,9.48-2.6.67-4.64,1-6.11,1h-.49c-5.38,0-10.38-2.17-14.98-6.5C1.96,31.35,0,26.32,0,20.58v-.25c0-.19.04-.35.12-.49,0-.1-.04-.14-.12-.14.53-4.06,1.61-7.34,3.25-9.85C5.84,5.64,9.83,2.64,15.23.86c2.02-.57,3.76-.86,5.23-.86Zm-2.86,13.47l.12,3.86c0,.12-.12.25-.37.39h-2.13v4.35h2.13c.12,0,.25.13.37.39v10.73l.06.76h4.44v-11.61c.03-.18.11-.27.25-.27h3.62c.16,0,.37-1.37.63-4.11v-.25h-4.25c-.16,0-.25-.08-.25-.25v-3c0-1.28.75-1.99,2.25-2.13h2.49v-3.74c0-.25-.87-.37-2.62-.37h-.63c-2.88,0-4.75,1.08-5.62,3.23-.16.45-.33,1.12-.49,2Z"/>
    </g>
  </g>
</svg>