<?xml version="1.0" encoding="utf-8"?>
<!-- Generator: Adobe Illustrator 24.3.0, SVG Export Plug-In . SVG Version: 6.00 Build 0)  -->
<svg version="1.1" id="Capa_1" xmlns="http://www.w3.org/2000/svg" xmlns:xlink="http://www.w3.org/1999/xlink" x="0px" y="0px"
	 viewBox="0 0 208.5 158.5" style="enable-background:new 0 0 208.5 158.5;" xml:space="preserve">
<style type="text/css">
	.st0{fill:#FFFFFF;}
	.st1{fill:#D4D7C9;}
	.st2{fill:#D31F1D;}
	.st3{fill:#AC1738;}
	.st4{fill:#36C6C6;}
</style>
<g>
	<g>
		<g>
			<path class="st0" d="M104.5,25.6c-0.4-4.6-4.2-8.3-8.9-8.3v113.4c0,4.9,4,8.9,8.9,8.9V26.2V25.6z"/>
			<rect x="21.5" y="17.3" class="st0" width="74.1" height="113.4"/>
			<path class="st1" d="M113.4,17.3v114.2c0-0.3,0.1-0.5,0.1-0.8h73.9V17.3H113.4z"/>
			<path class="st0" d="M104.5,25.8c0,0.1,0,0.3,0,0.4c0,0.1,0,0.3,0,0.4c0-0.1,0-0.3,0-0.4v113.4c0,0,0.1,0,0.1,0
				c4.7,0,8.5-3.6,8.9-8.1V17.3C108.6,17.3,104.8,21.1,104.5,25.8z"/>
		</g>
		<g>
			<path class="st2" d="M187.5,130.7h-73.9c0,4.9-4,9-8.9,9s-8.9-4-8.9-9H21.5V17.3h-3.9v113.4v3.9h3.9h70.8c1.6,5.2,6.5,9,12.2,9
				s10.6-3.8,12.2-9h70.7h3.9v-3.9V17.3h-3.9V130.7z"/>
		</g>
		<g>
			<path class="st3" d="M104.6,139.7c5,0,9-4,9-9h-18C95.6,135.7,99.7,139.7,104.6,139.7z"/>
		</g>
		<rect x="27.6" y="27.1" class="st0" width="61.1" height="89.5"/>
		<rect x="120.6" y="27.1" class="st0" width="61.1" height="89.5"/>
		<rect x="32.4" y="33.1" class="st1" width="51.8" height="5.2"/>
		<rect x="32.4" y="43.5" class="st1" width="51.8" height="5.2"/>
		<rect x="32.4" y="53.9" class="st1" width="51.8" height="5.2"/>
		<rect x="32.4" y="64.3" class="st1" width="51.8" height="5.2"/>
		<rect x="32.4" y="74.7" class="st1" width="51.8" height="5.2"/>
		<rect x="32.4" y="85.1" class="st1" width="51.8" height="5.2"/>
		<rect x="32.4" y="95.5" class="st1" width="51.8" height="5.2"/>
		<rect x="50.4" y="105.9" class="st1" width="15.6" height="5.2"/>
		<rect x="124.6" y="33.1" class="st1" width="51.8" height="5.2"/>
		<rect x="124.6" y="43.5" class="st1" width="51.8" height="5.2"/>
		<rect x="124.6" y="53.9" class="st1" width="51.8" height="5.2"/>
		<rect x="124.6" y="64.3" class="st1" width="51.8" height="5.2"/>
		<rect x="124.6" y="74.7" class="st1" width="51.8" height="5.2"/>
		<rect x="124.6" y="85.1" class="st1" width="51.8" height="5.2"/>
		<rect x="124.6" y="95.5" class="st1" width="51.8" height="5.2"/>
		<rect x="142.5" y="105.9" class="st1" width="15.6" height="5.2"/>
	</g>
	<rect x="113.4" y="124" class="st0" width="74" height="6.7"/>
	<rect x="21.6" y="124" class="st1" width="74" height="6.7"/>
	<g>
		<polygon class="st4" points="74.2,13.5 74.2,145.5 81.4,138.2 81.4,13.5 		"/>
		<polygon class="st4" points="81.4,13.5 81.4,138.2 88.7,145.5 88.7,13.5 		"/>
	</g>
</g>
</svg>
