<?xml version="1.0" encoding="utf-8"?>
<!-- Generator: Adobe Illustrator 24.3.0, SVG Export Plug-In . SVG Version: 6.00 Build 0)  -->
<svg version="1.1" id="Capa_1" xmlns="http://www.w3.org/2000/svg" xmlns:xlink="http://www.w3.org/1999/xlink" x="0px" y="0px"
	 viewBox="0 0 208.5 158.5" style="enable-background:new 0 0 208.5 158.5;" xml:space="preserve">
<style type="text/css">
	.st0{fill-rule:evenodd;clip-rule:evenodd;fill:#ED8149;}
</style>
<g>
	<path class="st0" d="M94.5,145.3l4.6,3.1l4.8,3.7l2.8,0.4l4.9-0.3l2.8-3.4l4.1-2.7l2-2.3l6.1-3.2l1.1-3.1l2-2.2l5.6-1.1l2.8-1.3
		l-0.2-2.4l-3.8-0.8l-3.8,0.4l-5.5-1.8l0.8-4l-1.3-2.4l3.4-5.2l-0.9-2.2l-2.6-2.4l-2.5-0.9l-1.6-2.9l3.5,1l3.7,0.6l3.7,2.1l4.1-0.3
		l5.4-0.7l1.3,0.9l3.8-1.3l3.9-3.5l3.4-0.3l2,1l5.4-2.3l3.9-0.3l6.2-4.4l1.1-2.9l-0.3-2.8l-4.5-3.7l-3.1-4.3l-1.1-3l2.4-2.2l0.5-3.6
		l1.6-1.9l1.9,0.9l1.6-0.9l2.1,0.8l3.9-1.7v-2.8l-2-1.6l-3.2-0.2l-0.9-2.6l-0.9-1.6l3.3-3.9l1.8,0.2l2.5-1.9l3.5-4.2l0.4-1.1
		l-0.6-0.4l-4.6-2.1l-1.6,0l-1.6,0.6l-2.4-0.5l-1.3,0l-1.9,0.9l-3.9,0.6l-2.8-0.3l-1.4-0.2l2.5-0.4l1.4,0.2l1.7-1.1l1-1.9l2.5-1.9
		l0.5-1.2l-1.6-1.1L167,46l-0.7-1.9l-3.3-1.7l-4-1l-1.2-1.2l-1.5-1L154,39l-0.8-1.1l-2.4-1l-1.3,0.1l0.1,2l-1.6-2.1l-0.9-2.3
		l-2.4-1.2l-0.7-1.3l1.3-1l5.4,0.2l2-1.3l3.4-0.3l0.3-2l-3.1,0.6l-5.4-1.1l-3.9,0.5l-2.6-0.2l-5.3,1.9l-1.8-0.8l-2.2,0.3l-4.4,3.1
		l-2.2,0.5l-2.7,1.4l-1,1.3l-3.5,0.4l-1.1,0.7l-1.8-0.6l-5.3-3.5l-1-2.2l-1.6-0.3l-5.9,0.4L90.3,32h-5.5l-2.2-1.1l-0.9-1.7V27
		l1.4-0.1l-0.3-2.4l-2.4-3.3l-2.2-0.6l-5.7,0.4l-2.6-1.5L68,19.5L66.4,20l-2-3.2v-3.2l-0.9-4l-1.1-0.4l-3.4,1.4l-3.3,3.9l0.8,2.6
		l1.1,1l2.2-1.2l2.2,0.2l1.9,2.1l-0.3,1.5l-2.1,0.6l-2.4-1.1l-1.1-0.8L57.5,20L57.5,21l-2.8,1.5l-5.3,1l-5.3,2.2l-1.6,2.1v2l1.3,2.5
		v4.8l0.5,3.3l1,2.8l-1.7,3.6l-4.2,2.4l-2.1-0.3v-3.5L35,42.6l-0.7-2.4l2.2-1.9l0.2-1.4l4.5-4.5v-3.8l-1.4-2.5L40,25l-0.1-1.5
		L38,22.1l-0.9-2l0.6-1.6l2.8-1.2l2.9-0.7l2.5-2.9l-1.3,0l-0.6,0.4l-6.1,2.4L34.2,22l-1.1,1.4L31,23.9l-1.9,2.8l-1.9,1.6l-3.8,5.4
		l-0.7,2.4l0.8,2.1l-0.3,4l-1.8,3.9L21,47.3l1.6-0.2l2.1,0.1l4.7,8.7l2.1,3.2l0.6,2.3L30.9,64l0.2,1.6L30.3,67l0.1,1.7l2.7,2.3
		l3.4,1.5l2.1,0.3l2.5,1.2l1.9-1l3.1,0.1l2.9,0.9l0.9-0.7l3.5-0.6l3.8,0.7l2.2,0.9l9,8.9l3.3-0.7l0.9,0.7l1-0.3l2.4,0.7l1.6,0.9
		l2.2-1.3l2.4,0l3.3,0.3l0.6-0.6l2.1-0.1l1.9,1l0.7,4.6l-1,1.9v2.1L89,93.8l-2.9,0.9l-1.3,1.6l0.7,4.3l0.3,1.6l-0.9,3L85,109
		l1.3,1.9l0.1,1.4l2.6,6.4l-3.9,7.1l0.3,1.7l1.3,0.4l1.2-0.9l0.5,0.6l0.5,1.9l1.2,0.7l1.3,2.4l-0.6,1.3l1.4,3l2.4,6.1l0.2,2.3
		L94.5,145.3L94.5,145.3z M78.6,8.6l2.3-0.2l2.2,2.2l-0.5,2l-1.4-1.8l-1.6-0.3L78.6,8.6L78.6,8.6z M70.7,7.6l2.2,2.6l2.1,0.3
		l-1.2,1.3l-2.7-0.6L70,8.8L70.7,7.6L70.7,7.6z M59.3,5l1.6,2.2L63.2,7l-2.1-1.9L59.3,5L59.3,5z M126.8,25.4l2.5-1.8l1.2,1.6
		l3.6-2.7l1,1.6l-1.9,2.3l-2.4-0.6l-2.6,0.6C128.1,26.3,126.8,25.3,126.8,25.4z"/>
</g>
</svg>
