<?xml version="1.0" encoding="utf-8"?>
<!-- Generator: Adobe Illustrator 24.3.0, SVG Export Plug-In . SVG Version: 6.00 Build 0)  -->
<svg version="1.1" id="Capa_1" xmlns="http://www.w3.org/2000/svg" xmlns:xlink="http://www.w3.org/1999/xlink" x="0px" y="0px"
	 viewBox="0 0 208.5 158.5" style="enable-background:new 0 0 208.5 158.5;" xml:space="preserve">
<style type="text/css">
	.st0{fill:#EEB734;}
</style>
<path class="st0" d="M170.1,71.1l-49.1-49l-6.3-6.3c-2.3-2.3-5.2-3.4-8.2-3.4s-5.9,1.1-8.2,3.4L92.1,22L43,71.1
	c-4.5,4.5-4.5,11.8,0,16.3l6.3,6.3L58,85v49.1c0,6.6,5.4,12,12,12h7.5c6.6,0,12-5.4,12-12V90.9h33.9v43.2c0,6.6,5.4,12,12,12h7.7
	c6.6,0,12-5.4,12-12V85l8.7,8.7l6.3-6.3C174.6,82.9,174.6,75.6,170.1,71.1z"/>
</svg>
