<?xml version="1.0" encoding="UTF-8"?>
<svg id="Capa_2" data-name="Capa 2" xmlns="http://www.w3.org/2000/svg" viewBox="0 0 42.17 42.04">
  <defs>
    <style>
      .cls-1 {
        fill: #fff;
      }

      .cls-2 {
        fill: #05601e;
      }
    </style>
  </defs>
  <g id="Capa_1-2" data-name="Capa 1">
    <g>
      <circle class="cls-1" cx="21.69" cy="21.46" r="14.5"/>
      <path class="cls-2" d="m19.58,0h3c3.22,0,6.87,1.33,10.98,3.99,3.09,2.41,5.33,5.2,6.72,8.36,1.25,3.01,1.88,5.55,1.88,7.62v1.74c0,4.66-1.91,9.28-5.74,13.86-4.44,4.32-9.6,6.48-15.47,6.48-7.33,0-13.32-3.41-17.97-10.24-1.99-3.68-2.98-7.3-2.98-10.85,0-5.86,2.41-11.14,7.24-15.84C11.73,1.7,15.85,0,19.58,0Zm-9.73,18.21v6.5c0,3.54,1.12,5.91,3.37,7.09,1.01.57,4.25.78,9.73.63,4.2,0,6.61-.46,7.24-1.37,1.42-1.13,2.13-3,2.13-5.62v-8.36c0-3.3-1.17-5.46-3.5-6.48l-1.55-.51-1.57-.12h-9.1c-3.24,0-5.41,1.58-6.5,4.74-.16.97-.25,2.13-.25,3.5Zm7.11-6.23h8.73c3.16,0,4.74,1.66,4.74,4.99v8.85c-.42,3.08-1.71,4.62-3.86,4.62h-3.62c-1.69,0-3.47.04-5.36.12-3.13,0-4.97-.99-5.5-2.98-.16-1.1-.25-2.77-.25-4.99v-2.76c0-4.16.33-6.23,1-6.23.67-1.08,2.04-1.61,4.11-1.61Zm-1.61,9.36c0,2.68,1.54,4.55,4.62,5.6h2.49c2.98-1.08,4.48-2.98,4.48-5.72v-.27c0-1.55-.79-3-2.37-4.35-1.08-.75-2.19-1.12-3.35-1.12h-.12c-2.58,0-4.37,1.33-5.38,3.99-.14.18-.26.8-.37,1.88Zm5.74-3.88h.12c1.8,0,3,.96,3.62,2.88.08.11.12.4.12.88-.4,2.58-1.64,3.86-3.74,3.86-1.66,0-2.87-.83-3.62-2.49-.11-.14-.2-.55-.27-1.25.3-2.59,1.55-3.88,3.76-3.88Zm4.72-2.11c.37.83.83,1.25,1.39,1.25s1.01-.42,1.37-1.25c-.19-1.01-.69-1.51-1.51-1.51-.83.26-1.25.76-1.25,1.51Z"/>
    </g>
  </g>
</svg>